# xmcd
#
# Track frame offsets: 
#        150
#        9505
#        17677
#        27022
#        37082
#        48657
#        58555
#        67700
#        76825
#        87582
#        98372
#        108290
#        113805
#        121617
#        132740
#        141115
#        151440
#        160975
#        171187
#        178980
#        188335
#        199215
#        207177
#
# Disc length: 2893 seconds
#
# Revision: 0
# Processed by: cddbd v1.5PL3 Copyright (c) Steve Scherf et al.
# Submitted via: ExactAudioCopy v0.95a3
#
DISCID=2c0b4b17
DTITLE=Various Artist - Giant Polka Hits
DYEAR=2001
DGENRE=Polka
TTITLE0=Myron Floren and Lawrence Welk - The American Patrol Polka
TTITLE1=Myron Floren and Lawrence Welk - Hoop Dee Doo Polka
TTITLE2=The Magic Organ - Tavern In The Town
TTITLE3=Myron Floren and Lawrence Welk - The Thunder Polka
TTITLE4=The Magic Organ - Helena Polka
TTITLE5=Myron Floren - Happy Norwegian Polka
TTITLE6=The Magic Organ - Skip To My Lou, Polly Wolly Doodle Medley
TTITLE7=Myron Floren and Lawrence Welk - Dakota Polka
TTITLE8=The Magic Organ - Jalisco
TTITLE9=Myron Floren and Lawrence Welk - Springtime Polka
TTITLE10=The Magic Organ - Muziky Muziky
TTITLE11=Myron Floren - Flight Of The Bumble Bee
TTITLE12=Myron Floren - Happy Hour
TTITLE13=The Magic Organ - Toe Tapper
TTITLE14=Myron Floren - Circus Polka
TTITLE15=The Magic Organ - Chihuahua Polka
TTITLE16=Myron Floren - Jolly Polka
TTITLE17=The Magic Organ - Village Inn Polka
TTITLE18=Myron Floren - Little Brown Jug, Skip To My Lou, Polly Wolly 
TTITLE18=Doodle Medley
TTITLE19=Myron Floren - Silver Polka
TTITLE20=The Magic Organ - Pump Organ Polka
TTITLE21=Myron Floren - Finger Tip Polka
TTITLE22=Myron Floren - Hopak Polka
EXTD=
EXTT0=
EXTT1=
EXTT2=
EXTT3=
EXTT4=
EXTT5=
EXTT6=
EXTT7=
EXTT8=
EXTT9=
EXTT10=
EXTT11=
EXTT12=
EXTT13=
EXTT14=
EXTT15=
EXTT16=
EXTT17=
EXTT18=
EXTT19=
EXTT20=
EXTT21=
EXTT22=
PLAYORDER=
